<svg width="159" height="36" viewBox="0 0 159 36" fill="none" xmlns="http://www.w3.org/2000/svg">
<path d="M0 0V35.453H158.578V0H0ZM156.578 33.453H75.578V2H156.578V33.453Z" fill="#394149"/>
<path d="M8.42896 23.6659V11.8789H12.497V20.5269H19.673V23.6659H8.42896Z" fill="white"/>
<path d="M35.711 17.6904C35.711 21.4434 33.369 23.8464 27.798 23.8464C22.738 23.8464 19.87 21.7744 19.87 17.6904C19.87 14.0714 22.604 11.6094 27.798 11.6094C33.073 11.6094 35.711 13.8764 35.711 17.6904ZM31.627 17.7354C31.627 16.0354 30.921 14.6724 27.783 14.6724C24.915 14.6724 23.983 15.8884 23.983 17.7354C23.983 19.6124 24.838 20.8284 27.796 20.8284C30.773 20.8284 31.627 19.5374 31.627 17.7354V17.7354Z" fill="white"/>
<path d="M48.295 23.6659L48.19 22.5239C46.8292 23.4952 45.1728 23.9626 43.505 23.8459C40.998 23.8459 38.91 23.0949 37.739 21.5789C36.9667 20.4722 36.5766 19.1436 36.628 17.7949C36.5842 16.4746 36.9877 15.1782 37.773 14.1159C38.958 12.6449 41.106 11.6689 44.304 11.6689C47.983 11.6689 50.145 12.7949 51.075 14.6869C51.2747 15.1325 51.3919 15.6106 51.421 16.0979H47.529C47.431 15.8018 47.2485 15.5407 47.004 15.3469C46.2288 14.833 45.303 14.5952 44.376 14.6719C43.8323 14.606 43.2808 14.6563 42.758 14.8194C42.2351 14.9824 41.7529 15.2546 41.343 15.6179C40.8777 16.2549 40.6592 17.0391 40.728 17.8249C40.6741 18.5747 40.875 19.3206 41.298 19.9419C41.7116 20.3272 42.2032 20.6191 42.7394 20.7978C43.2756 20.9766 43.844 21.038 44.406 20.9779C45.5224 21.0687 46.6307 20.7244 47.499 20.0169C47.6856 19.7837 47.8141 19.5095 47.874 19.2169H43.686V16.6839H51.523V23.6659H48.295Z" fill="white"/>
<path d="M68.5049 17.6904C68.5049 21.4434 66.1619 23.8464 60.5919 23.8464C55.5319 23.8464 52.6639 21.7744 52.6639 17.6904C52.6639 14.0714 55.3979 11.6094 60.5919 11.6094C65.8629 11.6094 68.5049 13.8764 68.5049 17.6904ZM64.4209 17.7354C64.4209 16.0354 63.7149 14.6724 60.5769 14.6724C57.7089 14.6724 56.7769 15.8884 56.7769 17.7354C56.7769 19.6124 57.6329 20.8284 60.5899 20.8284C63.5659 20.8284 64.4209 19.5374 64.4209 17.7354V17.7354Z" fill="white"/>
<path d="M82.4301 23.621V11.834H85.3301V23.621H82.4301Z" fill="#394149"/>
<path d="M100.222 18.6957C99.487 19.6567 98.222 20.0957 96.439 20.1067C96.063 20.1067 91.078 20.0917 91.078 20.0917V23.6207H88.24V11.8337H96.44C97.0972 11.7642 97.7618 11.8339 98.3903 12.0382C99.0188 12.2426 99.5973 12.577 100.088 13.0197C100.736 13.8639 101.051 14.9165 100.974 15.9777C101.04 16.9429 100.775 17.9018 100.222 18.6957V18.6957ZM97.895 14.8527C97.595 14.4027 96.948 14.1527 95.853 14.1527H91.063V17.7407H95.822C96.993 17.7407 97.61 17.5007 97.895 17.0347C98.0645 16.7064 98.1373 16.3368 98.105 15.9687C98.1303 15.585 98.058 15.201 97.895 14.8527V14.8527Z" fill="#394149"/>
<path d="M109.337 23.8013C103.991 23.8013 102.355 21.8013 102.355 19.8223H105.388C105.388 20.7983 106.724 21.5343 109.472 21.5343C112.204 21.5343 112.925 21.0533 112.925 20.2723C112.925 19.4013 112.385 19.1313 109.847 18.8463C109.347 18.8013 107.986 18.6363 107.475 18.5613C103.875 18.1553 102.489 17.0893 102.489 15.1823C102.489 13.1703 104.517 11.6543 108.916 11.6543C113.691 11.6543 115.523 13.5313 115.523 15.4833H112.523C112.523 14.4923 111.397 13.9213 108.739 13.9213C106.006 13.9213 105.421 14.2963 105.421 15.0323C105.421 15.7983 106.021 16.0383 108.921 16.3833C109.582 16.4743 111.053 16.6393 111.458 16.6833C114.522 16.9983 115.903 18.1093 115.903 20.0763C115.898 22.4193 113.796 23.8013 109.337 23.8013Z" fill="#394149"/>
<path d="M124.443 23.786C120.525 23.786 117.972 22.239 117.972 18.986V11.834H120.839V19.026C120.839 20.513 122.056 21.503 124.563 21.503C126.83 21.503 128.182 20.573 128.182 19.026V11.834H131.02V19.253C131.02 22.21 128.647 23.786 124.443 23.786Z" fill="#394149"/>
<path d="M146.56 23.621V15.753L142.881 23.621H140.089L136.515 15.753V23.621H133.815V11.834H137.473L141.527 20.813L145.671 11.834H149.271V23.621H146.56Z" fill="#394149"/>
</svg>
